<svg width="60" height="60" viewBox="0 0 60 60" fill="none" xmlns="http://www.w3.org/2000/svg">
<rect opacity="0.1" x="60" y="60" width="60" height="60" rx="30" transform="rotate(-180 60 60)" fill="#FD5B4F"/>
<path d="M27.9882 39.1925C28.3787 39.583 29.0119 39.583 29.4024 39.1925C29.7929 38.8019 29.7929 38.1688 29.4024 37.7782L22.6237 30.9995L39.791 30.9995C40.3433 30.9995 40.791 30.5518 40.791 29.9995C40.791 29.4472 40.3433 28.9995 39.791 28.9995L22.6248 28.9995L29.4024 22.2219C29.7929 21.8314 29.7929 21.1982 29.4024 20.8077C29.0119 20.4172 28.3787 20.4172 27.9882 20.8077L19.5296 29.2663C19.3328 29.4489 19.2096 29.7098 19.2096 29.9995C19.2096 30.1884 19.262 30.3651 19.353 30.5158C19.3941 30.584 19.4441 30.6483 19.5029 30.7072L27.9882 39.1925Z" fill="#FD5B4F"/>
</svg>
