<svg width="1440" height="128" viewBox="0 0 1440 128" fill="none" xmlns="http://www.w3.org/2000/svg">
<g clip-path="url(#clip0_401_1332)">
<path d="M0 127H1440V24.9102C1257.5 7.95 981.576 -0.999994 719.5 -0.999994C457.835 -0.999994 210.28 4.9 0 24.7883V127Z" fill="#09212A"/>
<path d="M705.872 44.941V42.8672C706.5 42.8672 707.088 42.752 707.639 42.5216C708.189 42.2784 708.669 41.9456 709.079 41.5231C709.489 41.1007 709.809 40.6079 710.039 40.0446C710.269 39.4814 710.385 38.8733 710.385 38.2205C710.385 37.5676 710.269 36.9596 710.039 36.3964C709.809 35.8331 709.489 35.3403 709.079 34.9178C708.669 34.4954 708.189 34.169 707.639 33.9386C707.088 33.6954 706.5 33.5738 705.872 33.5738V31.5C707.191 31.5 708.356 31.788 709.367 32.3641C710.391 32.9273 711.191 33.7146 711.767 34.7258C712.356 35.7371 712.65 36.902 712.65 38.2205C712.65 39.5262 712.356 40.6847 711.767 41.6959C711.191 42.7072 710.391 43.5009 709.367 44.0769C708.356 44.653 707.191 44.941 705.872 44.941ZM703.088 44.941V42.8672H705.872V44.941H703.088ZM701.648 44.941V31.5H703.875V44.941H701.648ZM703.088 33.5738V31.5H705.872V33.5738H703.088Z" fill="white"/>
<path d="M718.609 45.1714C717.674 45.1714 716.842 44.9602 716.113 44.5377C715.383 44.1025 714.813 43.5073 714.404 42.752C713.994 41.9968 713.789 41.1263 713.789 40.1406C713.789 39.155 714 38.2845 714.423 37.5292C714.845 36.774 715.421 36.1851 716.151 35.7627C716.881 35.3275 717.726 35.1099 718.686 35.1099C719.53 35.1099 720.299 35.3339 720.99 35.7819C721.681 36.2171 722.225 36.8508 722.622 37.6829C723.032 38.5149 723.236 39.507 723.236 40.6591H721.067C721.079 39.827 720.983 39.1422 720.779 38.6045C720.587 38.0669 720.305 37.67 719.934 37.414C719.562 37.1452 719.121 37.0108 718.609 37.0108C718.071 37.0108 717.61 37.1324 717.226 37.3756C716.855 37.6188 716.567 37.9773 716.362 38.4509C716.157 38.9117 716.055 39.4942 716.055 40.1982C716.055 40.8255 716.177 41.3631 716.42 41.8112C716.663 42.2592 716.989 42.6048 717.399 42.848C717.822 43.0784 718.289 43.1937 718.801 43.1937C719.364 43.1937 719.831 43.0656 720.203 42.8096C720.574 42.5408 720.862 42.2016 721.067 41.7919L723.044 42.6368C722.775 43.1488 722.436 43.5969 722.027 43.9809C721.617 44.3649 721.124 44.6594 720.548 44.8642C719.972 45.069 719.326 45.1714 718.609 45.1714ZM715.191 40.6591L715.21 38.9501H722.123V40.6591H715.191Z" fill="white"/>
<path d="M727.345 44.941L731.089 35.3403H733.316L729.361 44.941H727.345ZM727.191 44.941L723.217 35.3403H725.425L729.188 44.941H727.191Z" fill="white"/>
<path d="M738.411 45.1714C737.477 45.1714 736.644 44.9602 735.915 44.5377C735.185 44.1025 734.616 43.5073 734.206 42.752C733.796 41.9968 733.591 41.1263 733.591 40.1406C733.591 39.155 733.803 38.2845 734.225 37.5292C734.648 36.774 735.224 36.1851 735.953 35.7627C736.683 35.3275 737.528 35.1099 738.488 35.1099C739.333 35.1099 740.101 35.3339 740.792 35.7819C741.483 36.2171 742.027 36.8508 742.424 37.6829C742.834 38.5149 743.039 39.507 743.039 40.6591H740.869C740.882 39.827 740.786 39.1422 740.581 38.6045C740.389 38.0669 740.107 37.67 739.736 37.414C739.365 37.1452 738.923 37.0108 738.411 37.0108C737.873 37.0108 737.413 37.1324 737.028 37.3756C736.657 37.6188 736.369 37.9773 736.164 38.4509C735.96 38.9117 735.857 39.4942 735.857 40.1982C735.857 40.8255 735.979 41.3631 736.222 41.8112C736.465 42.2592 736.792 42.6048 737.201 42.848C737.624 43.0784 738.091 43.1937 738.603 43.1937C739.166 43.1937 739.633 43.0656 740.005 42.8096C740.376 42.5408 740.664 42.2016 740.869 41.7919L742.847 42.6368C742.578 43.1488 742.238 43.5969 741.829 43.9809C741.419 44.3649 740.926 44.6594 740.35 44.8642C739.774 45.069 739.128 45.1714 738.411 45.1714ZM734.993 40.6591L735.012 38.9501H741.925V40.6591H734.993Z" fill="white"/>
<path d="M744.412 44.941L744.431 31.5H746.582L746.562 44.941H744.412Z" fill="white"/>
<path d="M753.135 45.1714C752.162 45.1714 751.298 44.9602 750.543 44.5377C749.801 44.1025 749.218 43.5073 748.796 42.752C748.373 41.9968 748.162 41.1263 748.162 40.1406C748.162 39.155 748.367 38.2845 748.776 37.5292C749.199 36.774 749.781 36.1851 750.524 35.7627C751.279 35.3275 752.137 35.1099 753.097 35.1099C754.07 35.1099 754.927 35.3275 755.67 35.7627C756.412 36.1851 756.995 36.774 757.417 37.5292C757.839 38.2845 758.051 39.155 758.051 40.1406C758.051 41.1263 757.839 41.9968 757.417 42.752C756.995 43.5073 756.412 44.1025 755.67 44.5377C754.94 44.9602 754.095 45.1714 753.135 45.1714ZM753.135 43.0976C753.647 43.0976 754.095 42.976 754.479 42.7328C754.876 42.4768 755.183 42.1248 755.401 41.6767C755.631 41.2287 755.747 40.7167 755.747 40.1406C755.747 39.5646 755.631 39.0525 755.401 38.6045C755.183 38.1565 754.87 37.8109 754.46 37.5676C754.063 37.3116 753.609 37.1836 753.097 37.1836C752.585 37.1836 752.13 37.3116 751.733 37.5676C751.337 37.8109 751.023 38.1565 750.793 38.6045C750.575 39.0525 750.466 39.5646 750.466 40.1406C750.466 40.7167 750.575 41.2287 750.793 41.6767C751.023 42.1248 751.337 42.4768 751.733 42.7328C752.143 42.976 752.61 43.0976 753.135 43.0976Z" fill="white"/>
<path d="M759.716 48.7813V35.3403H761.732L761.867 37.1068V48.7813H759.716ZM764.9 45.1714C764.094 45.1714 763.396 44.9666 762.807 44.5569C762.231 44.1345 761.79 43.5457 761.483 42.7904C761.175 42.0352 761.022 41.1519 761.022 40.1406C761.022 39.1166 761.175 38.2333 761.483 37.4908C761.79 36.7356 762.231 36.1531 762.807 35.7435C763.396 35.3211 764.094 35.1099 764.9 35.1099C765.771 35.1099 766.526 35.3211 767.166 35.7435C767.819 36.1531 768.325 36.7356 768.683 37.4908C769.054 38.2333 769.24 39.1166 769.24 40.1406C769.24 41.1519 769.054 42.0352 768.683 42.7904C768.325 43.5457 767.819 44.1345 767.166 44.5569C766.526 44.9666 765.771 45.1714 764.9 45.1714ZM764.363 43.2129C764.875 43.2129 765.329 43.0848 765.726 42.8288C766.123 42.56 766.436 42.1952 766.667 41.7343C766.91 41.2735 767.032 40.7423 767.032 40.1406C767.032 39.539 766.917 39.0077 766.686 38.5469C766.468 38.0861 766.161 37.7277 765.764 37.4716C765.368 37.2156 764.907 37.0876 764.382 37.0876C763.895 37.0876 763.46 37.2156 763.076 37.4716C762.692 37.7277 762.391 38.0861 762.174 38.5469C761.969 39.0077 761.867 39.539 761.867 40.1406C761.867 40.7423 761.969 41.2735 762.174 41.7343C762.391 42.1952 762.686 42.56 763.057 42.8288C763.441 43.0848 763.876 43.2129 764.363 43.2129Z" fill="white"/>
<path d="M775.09 45.1714C774.156 45.1714 773.324 44.9602 772.594 44.5377C771.864 44.1025 771.295 43.5073 770.885 42.752C770.475 41.9968 770.271 41.1263 770.271 40.1406C770.271 39.155 770.482 38.2845 770.904 37.5292C771.327 36.774 771.903 36.1851 772.632 35.7627C773.362 35.3275 774.207 35.1099 775.167 35.1099C776.012 35.1099 776.78 35.3339 777.471 35.7819C778.162 36.2171 778.706 36.8508 779.103 37.6829C779.513 38.5149 779.718 39.507 779.718 40.6591H777.548C777.561 39.827 777.465 39.1422 777.26 38.6045C777.068 38.0669 776.786 37.67 776.415 37.414C776.044 37.1452 775.602 37.0108 775.09 37.0108C774.553 37.0108 774.092 37.1324 773.708 37.3756C773.336 37.6188 773.048 37.9773 772.844 38.4509C772.639 38.9117 772.536 39.4942 772.536 40.1982C772.536 40.8255 772.658 41.3631 772.901 41.8112C773.144 42.2592 773.471 42.6048 773.88 42.848C774.303 43.0784 774.77 43.1937 775.282 43.1937C775.845 43.1937 776.313 43.0656 776.684 42.8096C777.055 42.5408 777.343 42.2016 777.548 41.7919L779.526 42.6368C779.257 43.1488 778.918 43.5969 778.508 43.9809C778.098 44.3649 777.606 44.6594 777.029 44.8642C776.453 45.069 775.807 45.1714 775.09 45.1714ZM771.672 40.6591L771.691 38.9501H778.604V40.6591H771.672Z" fill="white"/>
<path d="M782.512 39.8334C782.512 38.7965 782.71 37.9453 783.107 37.2796C783.504 36.614 784.016 36.1211 784.643 35.8011C785.283 35.4683 785.949 35.3019 786.64 35.3019V37.3564C786.051 37.3564 785.495 37.4396 784.97 37.606C784.458 37.7597 784.042 38.0157 783.722 38.3741C783.402 38.7325 783.242 39.2062 783.242 39.795L782.512 39.8334ZM781.091 44.941V35.3403H783.242V44.941H781.091Z" fill="white"/>
<path d="M710.961 63.2696L705.719 49.8286H707.946L713.322 63.2696H710.961ZM700.227 63.2696L705.584 49.8286H707.831L702.589 63.2696H700.227ZM702.742 59.9669V57.9892H710.788V59.9669H702.742Z" fill="white"/>
<path d="M716.341 60.5814L715.036 59.1029L720.028 53.6689H722.62L716.341 60.5814ZM714.287 63.2696V49.8286H716.437V63.2696H714.287ZM720.393 63.2696L717.013 58.2964L718.415 56.7987L722.947 63.2696H720.393Z" fill="white"/>
<path d="M729.361 63.2696L729.265 58.3348C729.265 57.682 729.195 57.1379 729.054 56.7027C728.913 56.2675 728.695 55.9346 728.401 55.7042C728.107 55.4738 727.71 55.3586 727.211 55.3586C726.763 55.3586 726.366 55.4546 726.02 55.6466C725.674 55.8386 725.386 56.1331 725.156 56.5299L723.236 55.8578C723.453 55.4354 723.735 55.0386 724.081 54.6674C724.426 54.2961 724.862 54.0017 725.386 53.7841C725.911 53.5537 726.539 53.4385 727.268 53.4385C728.19 53.4385 728.958 53.6113 729.572 53.9569C730.2 54.3025 730.667 54.8146 730.974 55.493C731.281 56.1715 731.435 57.0099 731.435 58.0084V63.2696H729.361ZM726.635 63.5C725.495 63.5 724.606 63.244 723.966 62.7319C723.338 62.2199 723.025 61.4967 723.025 60.5622C723.025 59.5637 723.357 58.8021 724.023 58.2772C724.702 57.7524 725.642 57.49 726.846 57.49H729.86L729.88 59.1413H727.518C726.66 59.1413 726.058 59.2629 725.713 59.5061C725.38 59.7365 725.214 60.0694 725.214 60.5046C725.214 60.8758 725.361 61.1702 725.655 61.3878C725.962 61.5927 726.385 61.6951 726.923 61.6951C727.396 61.6951 727.806 61.5863 728.151 61.3686C728.51 61.1382 728.785 60.8438 728.977 60.4854C729.169 60.1142 729.265 59.7173 729.265 59.2949H730.072C730.072 60.6006 729.79 61.6311 729.227 62.3863C728.676 63.1288 727.812 63.5 726.635 63.5Z" fill="white"/>
<path d="M740.177 63.2696L740.081 61.4839V49.8286H742.212V63.2696H740.177ZM737.047 63.5C736.176 63.5 735.415 63.2952 734.762 62.8856C734.122 62.4631 733.616 61.8743 733.245 61.119C732.887 60.3638 732.707 59.4805 732.707 58.4692C732.707 57.4452 732.887 56.5619 733.245 55.8194C733.616 55.0642 734.122 54.4817 734.762 54.0721C735.415 53.6497 736.176 53.4385 737.047 53.4385C737.853 53.4385 738.545 53.6497 739.121 54.0721C739.71 54.4817 740.158 55.0642 740.465 55.8194C740.772 56.5619 740.926 57.4452 740.926 58.4692C740.926 59.4805 740.772 60.3638 740.465 61.119C740.158 61.8743 739.71 62.4631 739.121 62.8856C738.545 63.2952 737.853 63.5 737.047 63.5ZM737.585 61.5415C738.071 61.5415 738.5 61.4134 738.871 61.1574C739.255 60.8886 739.55 60.5238 739.754 60.063C739.972 59.6021 740.081 59.0709 740.081 58.4692C740.081 57.8676 739.972 57.3364 739.754 56.8755C739.55 56.4147 739.255 56.0563 738.871 55.8002C738.5 55.5442 738.065 55.4162 737.565 55.4162C737.053 55.4162 736.599 55.5442 736.202 55.8002C735.805 56.0563 735.492 56.4147 735.261 56.8755C735.044 57.3364 734.928 57.8676 734.916 58.4692C734.928 59.0709 735.044 59.6021 735.261 60.063C735.492 60.5238 735.805 60.8886 736.202 61.1574C736.612 61.4134 737.073 61.5415 737.585 61.5415Z" fill="white"/>
<path d="M748.603 63.5C747.668 63.5 746.836 63.2888 746.107 62.8664C745.377 62.4311 744.807 61.8359 744.398 61.0806C743.988 60.3254 743.783 59.4549 743.783 58.4692C743.783 57.4836 743.994 56.6131 744.417 55.8578C744.839 55.1026 745.415 54.5137 746.145 54.0913C746.875 53.6561 747.719 53.4385 748.68 53.4385C749.524 53.4385 750.292 53.6625 750.984 54.1105C751.675 54.5457 752.219 55.1794 752.616 56.0115C753.025 56.8435 753.23 57.8356 753.23 58.9877H751.061C751.073 58.1556 750.977 57.4708 750.772 56.9331C750.58 56.3955 750.299 55.9987 749.928 55.7426C749.556 55.4738 749.115 55.3394 748.603 55.3394C748.065 55.3394 747.604 55.461 747.22 55.7042C746.849 55.9474 746.561 56.3059 746.356 56.7795C746.151 57.2403 746.049 57.8228 746.049 58.5268C746.049 59.1541 746.171 59.6917 746.414 60.1398C746.657 60.5878 746.983 60.9334 747.393 61.1766C747.815 61.407 748.283 61.5223 748.795 61.5223C749.358 61.5223 749.825 61.3942 750.196 61.1382C750.568 60.8694 750.856 60.5302 751.061 60.1206L753.038 60.9654C752.769 61.4775 752.43 61.9255 752.021 62.3095C751.611 62.6935 751.118 62.988 750.542 63.1928C749.966 63.3976 749.32 63.5 748.603 63.5ZM745.185 58.9877L745.204 57.2787H752.117V58.9877H745.185Z" fill="white"/>
<path d="M754.604 63.2696V53.6689H756.62L756.754 55.4354V63.2696H754.604ZM761.113 63.2696V58.354L763.263 57.778V63.2696H761.113ZM767.641 63.2696V58.354L769.773 57.778V63.2696H767.641ZM761.113 58.354C761.113 57.586 761.023 56.9971 760.844 56.5875C760.678 56.1651 760.434 55.8706 760.114 55.7042C759.807 55.5378 759.442 55.4546 759.02 55.4546C758.303 55.4418 757.746 55.6786 757.349 56.1651C756.953 56.6515 756.754 57.3492 756.754 58.258H755.948C755.948 57.2467 756.095 56.3827 756.389 55.6658C756.684 54.9362 757.106 54.3857 757.657 54.0145C758.207 53.6305 758.86 53.4385 759.615 53.4385C760.78 53.4385 761.676 53.7969 762.303 54.5137C762.943 55.2178 763.263 56.3059 763.263 57.778L761.113 58.354ZM767.641 58.354C767.641 57.586 767.552 56.9971 767.373 56.5875C767.193 56.1651 766.944 55.8706 766.624 55.7042C766.316 55.5378 765.958 55.4546 765.548 55.4546C764.819 55.4418 764.256 55.6786 763.859 56.1651C763.462 56.6515 763.263 57.3492 763.263 58.258H762.457C762.457 57.2467 762.604 56.3827 762.899 55.6658C763.193 54.9362 763.615 54.3857 764.166 54.0145C764.716 53.6305 765.369 53.4385 766.124 53.4385C767.289 53.4385 768.192 53.7969 768.832 54.5137C769.472 55.2178 769.786 56.3059 769.773 57.778L767.641 58.354Z" fill="white"/>
<path d="M771.718 63.2696L771.737 53.6689H773.868L773.849 63.2696H771.718ZM772.793 51.8448C772.447 51.8448 772.147 51.7231 771.891 51.4799C771.647 51.2239 771.526 50.9231 771.526 50.5775C771.526 50.2318 771.647 49.9374 771.891 49.6942C772.147 49.451 772.447 49.3294 772.793 49.3294C773.139 49.3294 773.433 49.451 773.676 49.6942C773.932 49.9374 774.06 50.2318 774.06 50.5775C774.06 50.9231 773.932 51.2239 773.676 51.4799C773.433 51.7231 773.139 51.8448 772.793 51.8448Z" fill="white"/>
<path d="M780.397 63.5C779.462 63.5 778.63 63.2888 777.901 62.8664C777.171 62.4311 776.601 61.8359 776.192 61.0806C775.782 60.3254 775.577 59.4549 775.577 58.4692C775.577 57.4836 775.788 56.6131 776.211 55.8578C776.633 55.1026 777.209 54.5137 777.939 54.0913C778.669 53.6561 779.514 53.4385 780.474 53.4385C781.318 53.4385 782.087 53.6625 782.778 54.1105C783.469 54.5457 784.013 55.1794 784.41 56.0115C784.82 56.8435 785.024 57.8356 785.024 58.9877H782.855C782.867 58.1556 782.771 57.4708 782.567 56.9331C782.375 56.3955 782.093 55.9987 781.722 55.7426C781.35 55.4738 780.909 55.3394 780.397 55.3394C779.859 55.3394 779.398 55.461 779.014 55.7042C778.643 55.9474 778.355 56.3059 778.15 56.7795C777.945 57.2403 777.843 57.8228 777.843 58.5268C777.843 59.1541 777.965 59.6917 778.208 60.1398C778.451 60.5878 778.777 60.9334 779.187 61.1766C779.61 61.407 780.077 61.5223 780.589 61.5223C781.152 61.5223 781.619 61.3942 781.99 61.1382C782.362 60.8694 782.65 60.5302 782.855 60.1206L784.832 60.9654C784.563 61.4775 784.224 61.9255 783.815 62.3095C783.405 62.6935 782.912 62.988 782.336 63.1928C781.76 63.3976 781.114 63.5 780.397 63.5ZM776.979 58.9877L776.998 57.2787H783.911V58.9877H776.979Z" fill="white"/>
<path d="M673.287 51.9497C673.295 52.0048 673.329 52.0525 673.378 52.0783C673.428 52.1041 673.486 52.1049 673.536 52.0804L680.813 48.5079C680.86 48.4853 680.893 48.4434 680.906 48.3935C680.998 48.025 681.027 47.6596 681.027 47.2655C681.027 46.8298 680.967 46.4325 680.909 46.0811C680.899 46.0253 680.864 45.9775 680.813 45.9527L673.536 42.4153C673.486 42.3913 673.428 42.392 673.379 42.4172C673.33 42.4425 673.296 42.4894 673.287 42.5437L673.286 42.5501C673.258 42.7167 673.228 42.8987 673.226 43.0833C673.197 43.2696 673.197 43.4857 673.197 43.684V43.6931C673.197 43.7672 673.204 43.8484 673.211 43.9242L673.213 43.9403C673.22 44.024 673.226 44.1045 673.226 44.1834C673.226 44.193 673.227 44.2026 673.229 44.212C673.241 44.2883 673.248 44.3653 673.255 44.4464L673.256 44.4569C673.263 44.5384 673.271 44.6275 673.288 44.7093C673.3 44.7642 673.337 44.8103 673.388 44.8332L678.772 47.2337L673.386 49.7339C673.336 49.7572 673.3 49.8027 673.288 49.8568C673.259 49.9976 673.228 50.1805 673.226 50.3682C673.197 50.5528 673.197 50.736 673.197 50.935V50.943C673.197 51.235 673.228 51.5596 673.287 51.9497Z" fill="#FD5B4F"/>
<path fill-rule="evenodd" clip-rule="evenodd" d="M670.872 38.6772C670.921 38.703 670.955 38.7507 670.963 38.8057C671.022 39.1959 671.053 39.5205 671.053 39.8125V39.8206C671.053 40.0195 671.053 40.2027 671.023 40.3873C671.022 40.575 670.991 40.7578 670.962 40.8987C670.95 40.9527 670.914 40.9983 670.864 41.0215L665.478 43.5218L670.862 45.9223C670.913 45.9451 670.95 45.9913 670.962 46.0462C670.979 46.128 670.987 46.2171 670.994 46.2985L670.995 46.309C671.002 46.3901 671.008 46.4671 671.021 46.5434C671.023 46.5529 671.024 46.5625 671.024 46.572C671.024 46.651 671.03 46.7315 671.037 46.8151L671.039 46.8312C671.045 46.907 671.053 46.9882 671.053 47.0624V47.0715C671.053 47.2699 671.053 47.4859 671.023 47.6721C671.022 47.8568 670.992 48.0388 670.964 48.2052L670.963 48.2118C670.954 48.2661 670.92 48.313 670.871 48.3382C670.822 48.3635 670.764 48.3642 670.714 48.3401L663.437 44.8027C663.386 44.778 663.351 44.7302 663.341 44.6744C663.283 44.323 663.222 43.9256 663.222 43.49C663.222 43.0959 663.252 42.7304 663.344 42.362C663.357 42.3121 663.39 42.2702 663.437 42.2475L670.714 38.6751C670.764 38.6506 670.822 38.6514 670.872 38.6772Z" fill="#FD5B4F"/>
<path fill-rule="evenodd" clip-rule="evenodd" d="M686.962 32.2859H657.287C655.118 32.2859 653.36 34.0443 653.36 36.2134V54.542C653.36 56.7112 655.118 58.4696 657.287 58.4696H686.962C689.131 58.4696 690.89 56.7112 690.89 54.542V36.2134C690.89 34.0443 689.131 32.2859 686.962 32.2859ZM655.542 36.2134C655.542 35.2494 656.323 34.4679 657.287 34.4679H686.962C687.926 34.4679 688.708 35.2494 688.708 36.2134V54.542C688.708 55.5061 687.926 56.2876 686.962 56.2876H657.287C656.323 56.2876 655.542 55.5061 655.542 54.542V36.2134Z" fill="#FD5B4F"/>
<path d="M657.506 60.6516C656.903 60.6516 656.415 61.14 656.415 61.7426C656.415 62.3451 656.903 62.8336 657.506 62.8336H686.744C687.347 62.8336 687.835 62.3451 687.835 61.7426C687.835 61.14 687.347 60.6516 686.744 60.6516H657.506Z" fill="#FD5B4F"/>
<path d="M613.212 92.654C612.503 92.654 611.84 92.528 611.224 92.276C610.617 92.0147 610.081 91.6553 609.614 91.198C609.147 90.7313 608.783 90.1947 608.522 89.588C608.27 88.972 608.144 88.3093 608.144 87.6C608.144 86.8907 608.27 86.2327 608.522 85.626C608.783 85.01 609.147 84.4687 609.614 84.002C610.081 83.5353 610.617 83.176 611.224 82.924C611.84 82.6627 612.503 82.532 613.212 82.532C613.912 82.532 614.57 82.6627 615.186 82.924C615.802 83.176 616.339 83.5353 616.796 84.002C617.253 84.4687 617.613 85.01 617.874 85.626C618.135 86.2327 618.266 86.8907 618.266 87.6C618.266 88.3093 618.135 88.972 617.874 89.588C617.613 90.1947 617.253 90.7313 616.796 91.198C616.339 91.6553 615.802 92.0147 615.186 92.276C614.57 92.528 613.912 92.654 613.212 92.654ZM613.184 90.372C612.68 90.372 612.232 90.2553 611.84 90.022C611.448 89.7887 611.14 89.4667 610.916 89.056C610.692 88.636 610.58 88.1507 610.58 87.6C610.58 87.0493 610.692 86.5687 610.916 86.158C611.14 85.738 611.443 85.4113 611.826 85.178C612.218 84.9447 612.666 84.828 613.17 84.828C613.627 84.828 614.057 84.9493 614.458 85.192C614.869 85.4347 615.172 85.7473 615.368 86.13L615.55 86.508L614.696 86.844L614.514 86.55C614.393 86.3167 614.206 86.13 613.954 85.99C613.702 85.8407 613.441 85.766 613.17 85.766C612.694 85.766 612.302 85.9387 611.994 86.284C611.695 86.62 611.546 87.0587 611.546 87.6C611.546 88.1413 611.7 88.5847 612.008 88.93C612.316 89.266 612.708 89.434 613.184 89.434C613.464 89.434 613.725 89.3547 613.968 89.196C614.22 89.028 614.416 88.8133 614.556 88.552L614.696 88.272L615.592 88.608L615.424 88.958C615.209 89.378 614.897 89.7187 614.486 89.98C614.075 90.2413 613.641 90.372 613.184 90.372ZM613.212 91.744C613.996 91.744 614.691 91.5667 615.298 91.212C615.914 90.8573 616.395 90.3673 616.74 89.742C617.095 89.1167 617.272 88.4027 617.272 87.6C617.272 86.788 617.095 86.0693 616.74 85.444C616.395 84.8187 615.914 84.3287 615.298 83.974C614.691 83.6193 613.996 83.442 613.212 83.442C612.428 83.442 611.728 83.6193 611.112 83.974C610.496 84.3287 610.011 84.8187 609.656 85.444C609.311 86.0693 609.138 86.788 609.138 87.6C609.138 88.4027 609.311 89.1167 609.656 89.742C610.011 90.3673 610.496 90.8573 611.112 91.212C611.728 91.5667 612.428 91.744 613.212 91.744ZM623.173 92.5V91.52C623.173 91.212 623.234 90.9087 623.355 90.61C623.486 90.302 623.668 89.9987 623.901 89.7C624.144 89.4013 624.438 89.1213 624.783 88.86L626.813 87.334C627.056 87.166 627.266 86.9747 627.443 86.76C627.63 86.536 627.774 86.3073 627.877 86.074C627.98 85.8313 628.031 85.598 628.031 85.374C628.031 85.0473 627.952 84.7533 627.793 84.492C627.634 84.2213 627.41 84.0067 627.121 83.848C626.832 83.6893 626.491 83.61 626.099 83.61C625.716 83.61 625.38 83.6847 625.091 83.834C624.802 83.974 624.564 84.1653 624.377 84.408C624.19 84.6413 624.055 84.8933 623.971 85.164L622.767 84.926C622.879 84.506 623.08 84.114 623.369 83.75C623.668 83.386 624.046 83.092 624.503 82.868C624.96 82.644 625.469 82.532 626.029 82.532C626.682 82.532 627.247 82.658 627.723 82.91C628.199 83.1527 628.568 83.4887 628.829 83.918C629.1 84.338 629.235 84.8187 629.235 85.36C629.235 85.8733 629.095 86.3587 628.815 86.816C628.535 87.2733 628.129 87.7167 627.597 88.146L625.679 89.602C625.306 89.882 625.016 90.176 624.811 90.484C624.615 90.792 624.503 91.114 624.475 91.45H629.375V92.5H623.173ZM634.675 92.668C633.929 92.668 633.266 92.4533 632.687 92.024C632.109 91.5853 631.656 90.988 631.329 90.232C631.003 89.4667 630.839 88.5893 630.839 87.6C630.839 86.6107 631.003 85.738 631.329 84.982C631.656 84.2167 632.104 83.6193 632.673 83.19C633.252 82.7513 633.919 82.532 634.675 82.532C635.431 82.532 636.094 82.7513 636.663 83.19C637.242 83.6193 637.695 84.2167 638.021 84.982C638.357 85.738 638.525 86.6107 638.525 87.6C638.525 88.5893 638.362 89.4667 638.035 90.232C637.709 90.988 637.256 91.5853 636.677 92.024C636.099 92.4533 635.431 92.668 634.675 92.668ZM634.675 91.604C635.198 91.604 635.66 91.4313 636.061 91.086C636.472 90.7407 636.789 90.2693 637.013 89.672C637.247 89.0747 637.363 88.384 637.363 87.6C637.363 86.816 637.247 86.1253 637.013 85.528C636.789 84.9213 636.472 84.45 636.061 84.114C635.66 83.7687 635.198 83.596 634.675 83.596C634.153 83.596 633.691 83.7687 633.289 84.114C632.888 84.45 632.571 84.9213 632.337 85.528C632.113 86.1253 632.001 86.816 632.001 87.6C632.001 88.384 632.113 89.0747 632.337 89.672C632.571 90.2693 632.888 90.7407 633.289 91.086C633.7 91.4313 634.162 91.604 634.675 91.604ZM639.962 92.5V91.52C639.962 91.212 640.023 90.9087 640.144 90.61C640.275 90.302 640.457 89.9987 640.69 89.7C640.933 89.4013 641.227 89.1213 641.572 88.86L643.602 87.334C643.845 87.166 644.055 86.9747 644.232 86.76C644.419 86.536 644.563 86.3073 644.666 86.074C644.769 85.8313 644.82 85.598 644.82 85.374C644.82 85.0473 644.741 84.7533 644.582 84.492C644.423 84.2213 644.199 84.0067 643.91 83.848C643.621 83.6893 643.28 83.61 642.888 83.61C642.505 83.61 642.169 83.6847 641.88 83.834C641.591 83.974 641.353 84.1653 641.166 84.408C640.979 84.6413 640.844 84.8933 640.76 85.164L639.556 84.926C639.668 84.506 639.869 84.114 640.158 83.75C640.457 83.386 640.835 83.092 641.292 82.868C641.749 82.644 642.258 82.532 642.818 82.532C643.471 82.532 644.036 82.658 644.512 82.91C644.988 83.1527 645.357 83.4887 645.618 83.918C645.889 84.338 646.024 84.8187 646.024 85.36C646.024 85.8733 645.884 86.3587 645.604 86.816C645.324 87.2733 644.918 87.7167 644.386 88.146L642.468 89.602C642.095 89.882 641.805 90.176 641.6 90.484C641.404 90.792 641.292 91.114 641.264 91.45H646.164V92.5H639.962ZM650.75 92.668C650.274 92.668 649.84 92.598 649.448 92.458C649.066 92.3087 648.734 92.1173 648.454 91.884C648.184 91.6507 647.969 91.4033 647.81 91.142L648.79 90.596C648.893 90.7267 649.019 90.876 649.168 91.044C649.327 91.2027 649.528 91.338 649.77 91.45C650.013 91.562 650.312 91.618 650.666 91.618C651.301 91.618 651.81 91.436 652.192 91.072C652.575 90.708 652.766 90.2507 652.766 89.7C652.766 89.28 652.65 88.9253 652.416 88.636C652.192 88.3467 651.866 88.1273 651.436 87.978C651.007 87.8287 650.494 87.754 649.896 87.754H649.63V86.83H649.868C650.456 86.83 650.998 86.8953 651.492 87.026C651.987 87.1567 652.416 87.348 652.78 87.6C653.154 87.852 653.438 88.16 653.634 88.524C653.84 88.888 653.942 89.308 653.942 89.784C653.942 90.3627 653.798 90.8713 653.508 91.31C653.228 91.7393 652.846 92.0753 652.36 92.318C651.875 92.5513 651.338 92.668 650.75 92.668ZM649.63 87.656V86.746H649.896C650.699 86.746 651.334 86.6107 651.8 86.34C652.276 86.06 652.514 85.6633 652.514 85.15C652.514 84.87 652.44 84.6133 652.29 84.38C652.141 84.1373 651.922 83.946 651.632 83.806C651.352 83.6567 651.026 83.582 650.652 83.582C650.4 83.582 650.162 83.6193 649.938 83.694C649.724 83.7593 649.523 83.862 649.336 84.002C649.159 84.1327 648.996 84.3007 648.846 84.506L647.922 83.974C648.1 83.6847 648.324 83.4327 648.594 83.218C648.874 83.0033 649.192 82.8353 649.546 82.714C649.901 82.5927 650.288 82.532 650.708 82.532C651.278 82.532 651.786 82.644 652.234 82.868C652.692 83.092 653.051 83.4 653.312 83.792C653.574 84.1747 653.704 84.6087 653.704 85.094C653.704 85.5047 653.606 85.8687 653.41 86.186C653.214 86.5033 652.939 86.774 652.584 86.998C652.239 87.222 651.833 87.39 651.366 87.502C650.909 87.6047 650.41 87.656 649.868 87.656H649.63ZM659.361 92.5V82.7H662.343C663.267 82.7 664.079 82.91 664.779 83.33C665.488 83.7407 666.043 84.3147 666.445 85.052C666.846 85.7893 667.047 86.6387 667.047 87.6C667.047 88.552 666.846 89.3967 666.445 90.134C666.043 90.8713 665.488 91.45 664.779 91.87C664.079 92.29 663.267 92.5 662.343 92.5H659.361ZM660.551 91.408H662.343C662.837 91.408 663.295 91.3147 663.715 91.128C664.135 90.932 664.503 90.6567 664.821 90.302C665.147 89.9473 665.399 89.5413 665.577 89.084C665.763 88.6173 665.857 88.1227 665.857 87.6C665.857 87.0773 665.763 86.5873 665.577 86.13C665.399 85.6633 665.147 85.2527 664.821 84.898C664.503 84.5433 664.135 84.2727 663.715 84.086C663.295 83.89 662.837 83.792 662.343 83.792H660.551V91.408ZM671.743 92.668C671.062 92.668 670.46 92.514 669.937 92.206C669.415 91.8887 669.004 91.4547 668.705 90.904C668.416 90.3533 668.271 89.7187 668.271 89C668.271 88.2813 668.416 87.6467 668.705 87.096C669.004 86.5453 669.41 86.116 669.923 85.808C670.446 85.4907 671.043 85.332 671.715 85.332C672.369 85.332 672.933 85.4953 673.409 85.822C673.885 86.1393 674.254 86.5873 674.515 87.166C674.777 87.7447 674.907 88.426 674.907 89.21H669.125L669.405 88.972C669.405 89.532 669.503 90.0127 669.699 90.414C669.905 90.8153 670.189 91.1233 670.553 91.338C670.917 91.5433 671.333 91.646 671.799 91.646C672.294 91.646 672.709 91.5293 673.045 91.296C673.391 91.0627 673.657 90.7547 673.843 90.372L674.809 90.862C674.632 91.226 674.394 91.5433 674.095 91.814C673.806 92.0847 673.461 92.2947 673.059 92.444C672.667 92.5933 672.229 92.668 671.743 92.668ZM669.475 88.496L669.181 88.272H674.011L673.717 88.51C673.717 88.062 673.629 87.6747 673.451 87.348C673.274 87.0213 673.036 86.7693 672.737 86.592C672.439 86.4147 672.093 86.326 671.701 86.326C671.319 86.326 670.955 86.4147 670.609 86.592C670.273 86.7693 669.998 87.0213 669.783 87.348C669.578 87.6653 669.475 88.048 669.475 88.496ZM678.284 92.5L681.14 85.5H682.316L679.39 92.5H678.284ZM678.214 92.5L675.288 85.5H676.45L679.306 92.5H678.214ZM686.317 92.668C685.636 92.668 685.034 92.514 684.511 92.206C683.989 91.8887 683.578 91.4547 683.279 90.904C682.99 90.3533 682.845 89.7187 682.845 89C682.845 88.2813 682.99 87.6467 683.279 87.096C683.578 86.5453 683.984 86.116 684.497 85.808C685.02 85.4907 685.617 85.332 686.289 85.332C686.943 85.332 687.507 85.4953 687.983 85.822C688.459 86.1393 688.828 86.5873 689.089 87.166C689.351 87.7447 689.481 88.426 689.481 89.21H683.699L683.979 88.972C683.979 89.532 684.077 90.0127 684.273 90.414C684.479 90.8153 684.763 91.1233 685.127 91.338C685.491 91.5433 685.907 91.646 686.373 91.646C686.868 91.646 687.283 91.5293 687.619 91.296C687.965 91.0627 688.231 90.7547 688.417 90.372L689.383 90.862C689.206 91.226 688.968 91.5433 688.669 91.814C688.38 92.0847 688.035 92.2947 687.633 92.444C687.241 92.5933 686.803 92.668 686.317 92.668ZM684.049 88.496L683.755 88.272H688.585L688.291 88.51C688.291 88.062 688.203 87.6747 688.025 87.348C687.848 87.0213 687.61 86.7693 687.311 86.592C687.013 86.4147 686.667 86.326 686.275 86.326C685.893 86.326 685.529 86.4147 685.183 86.592C684.847 86.7693 684.572 87.0213 684.357 87.348C684.152 87.6653 684.049 88.048 684.049 88.496ZM690.894 92.5V82.7H692.014V92.5H690.894ZM697.064 92.668C696.383 92.668 695.776 92.514 695.244 92.206C694.722 91.8887 694.311 91.4547 694.012 90.904C693.714 90.3533 693.564 89.7187 693.564 89C693.564 88.2813 693.709 87.6467 693.998 87.096C694.297 86.5453 694.708 86.116 695.23 85.808C695.762 85.4907 696.364 85.332 697.036 85.332C697.727 85.332 698.334 85.4907 698.856 85.808C699.388 86.116 699.799 86.5453 700.088 87.096C700.387 87.6467 700.536 88.2813 700.536 89C700.536 89.7187 700.387 90.3533 700.088 90.904C699.799 91.4547 699.393 91.8887 698.87 92.206C698.348 92.514 697.746 92.668 697.064 92.668ZM697.064 91.632C697.531 91.632 697.937 91.52 698.282 91.296C698.628 91.072 698.898 90.764 699.094 90.372C699.3 89.98 699.402 89.5227 699.402 89C699.402 88.4773 699.3 88.02 699.094 87.628C698.898 87.236 698.623 86.928 698.268 86.704C697.914 86.48 697.503 86.368 697.036 86.368C696.579 86.368 696.173 86.48 695.818 86.704C695.473 86.928 695.198 87.236 694.992 87.628C694.796 88.02 694.698 88.4773 694.698 89C694.698 89.5133 694.796 89.9707 694.992 90.372C695.198 90.764 695.478 91.072 695.832 91.296C696.196 91.52 696.607 91.632 697.064 91.632ZM702.161 95.3V85.5H703.211L703.281 86.788V95.3H702.161ZM705.647 92.668C705.059 92.668 704.541 92.514 704.093 92.206C703.655 91.898 703.314 91.4687 703.071 90.918C702.829 90.358 702.707 89.7187 702.707 89C702.707 88.272 702.829 87.6327 703.071 87.082C703.314 86.5313 703.655 86.102 704.093 85.794C704.541 85.486 705.059 85.332 705.647 85.332C706.273 85.332 706.823 85.486 707.299 85.794C707.775 86.102 708.144 86.5313 708.405 87.082C708.676 87.6327 708.811 88.272 708.811 89C708.811 89.7187 708.676 90.358 708.405 90.918C708.144 91.4687 707.775 91.898 707.299 92.206C706.823 92.514 706.273 92.668 705.647 92.668ZM705.395 91.646C705.834 91.646 706.221 91.534 706.557 91.31C706.903 91.086 707.173 90.7733 707.369 90.372C707.575 89.9707 707.677 89.5133 707.677 89C707.677 88.4867 707.579 88.0293 707.383 87.628C707.197 87.2267 706.931 86.914 706.585 86.69C706.24 86.466 705.848 86.354 705.409 86.354C704.999 86.354 704.63 86.466 704.303 86.69C703.986 86.914 703.734 87.2267 703.547 87.628C703.37 88.0293 703.281 88.4867 703.281 89C703.281 89.5133 703.37 89.9707 703.547 90.372C703.734 90.7733 703.986 91.086 704.303 91.31C704.621 91.534 704.985 91.646 705.395 91.646ZM713.429 92.668C712.747 92.668 712.145 92.514 711.623 92.206C711.1 91.8887 710.689 91.4547 710.391 90.904C710.101 90.3533 709.957 89.7187 709.957 89C709.957 88.2813 710.101 87.6467 710.391 87.096C710.689 86.5453 711.095 86.116 711.609 85.808C712.131 85.4907 712.729 85.332 713.401 85.332C714.054 85.332 714.619 85.4953 715.095 85.822C715.571 86.1393 715.939 86.5873 716.201 87.166C716.462 87.7447 716.593 88.426 716.593 89.21H710.811L711.091 88.972C711.091 89.532 711.189 90.0127 711.385 90.414C711.59 90.8153 711.875 91.1233 712.239 91.338C712.603 91.5433 713.018 91.646 713.485 91.646C713.979 91.646 714.395 91.5293 714.731 91.296C715.076 91.0627 715.342 90.7547 715.529 90.372L716.495 90.862C716.317 91.226 716.079 91.5433 715.781 91.814C715.491 92.0847 715.146 92.2947 714.745 92.444C714.353 92.5933 713.914 92.668 713.429 92.668ZM711.161 88.496L710.867 88.272H715.697L715.403 88.51C715.403 88.062 715.314 87.6747 715.137 87.348C714.959 87.0213 714.721 86.7693 714.423 86.592C714.124 86.4147 713.779 86.326 713.387 86.326C713.004 86.326 712.64 86.4147 712.295 86.592C711.959 86.7693 711.683 87.0213 711.469 87.348C711.263 87.6653 711.161 88.048 711.161 88.496ZM718.621 88.706C718.621 87.95 718.766 87.3387 719.055 86.872C719.345 86.396 719.713 86.046 720.161 85.822C720.619 85.5887 721.099 85.472 721.603 85.472V86.522C721.193 86.522 720.796 86.592 720.413 86.732C720.04 86.8627 719.732 87.082 719.489 87.39C719.247 87.698 719.125 88.118 719.125 88.65L718.621 88.706ZM718.005 92.5V85.5H719.125V92.5H718.005ZM733.307 92.5L729.373 82.7H730.563L734.553 92.5H733.307ZM725.341 92.5L729.331 82.7H730.535L726.601 92.5H725.341ZM727.231 89.714V88.65H732.677V89.714H727.231ZM736.761 90.246L736.047 89.476L739.771 85.5H741.185L736.761 90.246ZM735.669 92.5V82.7H736.789V92.5H735.669ZM740.079 92.5L737.419 88.482L738.147 87.698L741.465 92.5H740.079ZM746.626 92.5L746.57 91.352V88.804C746.57 88.2533 746.509 87.8007 746.388 87.446C746.267 87.082 746.075 86.8067 745.814 86.62C745.553 86.4333 745.212 86.34 744.792 86.34C744.409 86.34 744.078 86.4193 743.798 86.578C743.527 86.7273 743.303 86.97 743.126 87.306L742.118 86.914C742.295 86.5873 742.51 86.3073 742.762 86.074C743.014 85.8313 743.308 85.6493 743.644 85.528C743.98 85.3973 744.363 85.332 744.792 85.332C745.445 85.332 745.982 85.4627 746.402 85.724C746.831 85.976 747.153 86.354 747.368 86.858C747.583 87.3527 747.685 87.9687 747.676 88.706L747.662 92.5H746.626ZM744.526 92.668C743.705 92.668 743.061 92.4813 742.594 92.108C742.137 91.7253 741.908 91.198 741.908 90.526C741.908 89.8167 742.141 89.2753 742.608 88.902C743.084 88.5193 743.747 88.328 744.596 88.328H746.598V89.266H744.848C744.195 89.266 743.728 89.3733 743.448 89.588C743.177 89.8027 743.042 90.1107 743.042 90.512C743.042 90.876 743.177 91.1653 743.448 91.38C743.719 91.5853 744.097 91.688 744.582 91.688C744.983 91.688 745.333 91.604 745.632 91.436C745.931 91.2587 746.159 91.0113 746.318 90.694C746.486 90.3673 746.57 89.9847 746.57 89.546H747.046C747.046 90.498 746.831 91.2587 746.402 91.828C745.973 92.388 745.347 92.668 744.526 92.668ZM754.631 92.5L754.575 91.198V82.7H755.695V92.5H754.631ZM752.209 92.668C751.583 92.668 751.033 92.514 750.557 92.206C750.081 91.898 749.707 91.4687 749.437 90.918C749.175 90.358 749.045 89.7187 749.045 89C749.045 88.272 749.175 87.6327 749.437 87.082C749.707 86.5313 750.081 86.102 750.557 85.794C751.033 85.486 751.583 85.332 752.209 85.332C752.797 85.332 753.31 85.486 753.749 85.794C754.197 86.102 754.542 86.5313 754.785 87.082C755.027 87.6327 755.149 88.272 755.149 89C755.149 89.7187 755.027 90.358 754.785 90.918C754.542 91.4687 754.197 91.898 753.749 92.206C753.31 92.514 752.797 92.668 752.209 92.668ZM752.461 91.646C752.871 91.646 753.235 91.534 753.553 91.31C753.87 91.086 754.117 90.7733 754.295 90.372C754.481 89.9707 754.575 89.5133 754.575 89C754.575 88.4867 754.481 88.0293 754.295 87.628C754.117 87.2267 753.87 86.914 753.553 86.69C753.235 86.466 752.867 86.354 752.447 86.354C752.008 86.354 751.616 86.466 751.271 86.69C750.935 86.914 750.669 87.2267 750.473 87.628C750.277 88.0293 750.179 88.4867 750.179 89C750.179 89.5133 750.277 89.9707 750.473 90.372C750.669 90.7733 750.939 91.086 751.285 91.31C751.63 91.534 752.022 91.646 752.461 91.646ZM760.72 92.668C760.038 92.668 759.436 92.514 758.914 92.206C758.391 91.8887 757.98 91.4547 757.682 90.904C757.392 90.3533 757.248 89.7187 757.248 89C757.248 88.2813 757.392 87.6467 757.682 87.096C757.98 86.5453 758.386 86.116 758.9 85.808C759.422 85.4907 760.02 85.332 760.692 85.332C761.345 85.332 761.91 85.4953 762.386 85.822C762.862 86.1393 763.23 86.5873 763.492 87.166C763.753 87.7447 763.884 88.426 763.884 89.21H758.102L758.382 88.972C758.382 89.532 758.48 90.0127 758.676 90.414C758.881 90.8153 759.166 91.1233 759.53 91.338C759.894 91.5433 760.309 91.646 760.776 91.646C761.27 91.646 761.686 91.5293 762.022 91.296C762.367 91.0627 762.633 90.7547 762.82 90.372L763.786 90.862C763.608 91.226 763.37 91.5433 763.072 91.814C762.782 92.0847 762.437 92.2947 762.036 92.444C761.644 92.5933 761.205 92.668 760.72 92.668ZM758.452 88.496L758.158 88.272H762.988L762.694 88.51C762.694 88.062 762.605 87.6747 762.428 87.348C762.25 87.0213 762.012 86.7693 761.714 86.592C761.415 86.4147 761.07 86.326 760.678 86.326C760.295 86.326 759.931 86.4147 759.586 86.592C759.25 86.7693 758.974 87.0213 758.76 87.348C758.554 87.6653 758.452 88.048 758.452 88.496ZM765.296 92.5V85.5H766.346L766.402 86.48C766.617 86.1067 766.892 85.822 767.228 85.626C767.564 85.43 767.956 85.332 768.404 85.332C768.964 85.332 769.44 85.4627 769.832 85.724C770.234 85.9853 770.523 86.382 770.7 86.914C770.896 86.4007 771.181 86.0087 771.554 85.738C771.937 85.4673 772.39 85.332 772.912 85.332C773.696 85.332 774.312 85.5933 774.76 86.116C775.218 86.6387 775.442 87.432 775.432 88.496V92.5H774.312V88.916C774.312 88.2253 774.238 87.698 774.088 87.334C773.948 86.97 773.757 86.7227 773.514 86.592C773.272 86.452 772.992 86.382 772.674 86.382C772.124 86.382 771.694 86.6013 771.386 87.04C771.078 87.4693 770.924 88.0807 770.924 88.874V92.5H769.804V88.916C769.804 88.2253 769.73 87.698 769.58 87.334C769.44 86.97 769.244 86.7227 768.992 86.592C768.75 86.452 768.47 86.382 768.152 86.382C767.611 86.382 767.186 86.6013 766.878 87.04C766.57 87.4693 766.416 88.0807 766.416 88.874V92.5H765.296ZM777.275 92.5V85.5H778.395V92.5H777.275ZM777.849 83.876C777.662 83.876 777.499 83.806 777.359 83.666C777.219 83.526 777.149 83.3627 777.149 83.176C777.149 82.98 777.219 82.8167 777.359 82.686C777.499 82.546 777.662 82.476 777.849 82.476C778.045 82.476 778.208 82.546 778.339 82.686C778.479 82.8167 778.549 82.98 778.549 83.176C778.549 83.3627 778.479 83.526 778.339 83.666C778.208 83.806 778.045 83.876 777.849 83.876ZM783.525 92.668C782.843 92.668 782.241 92.514 781.719 92.206C781.196 91.8887 780.785 91.4547 780.487 90.904C780.197 90.3533 780.053 89.7187 780.053 89C780.053 88.2813 780.197 87.6467 780.487 87.096C780.785 86.5453 781.191 86.116 781.705 85.808C782.227 85.4907 782.825 85.332 783.497 85.332C784.15 85.332 784.715 85.4953 785.191 85.822C785.667 86.1393 786.035 86.5873 786.297 87.166C786.558 87.7447 786.689 88.426 786.689 89.21H780.907L781.187 88.972C781.187 89.532 781.285 90.0127 781.481 90.414C781.686 90.8153 781.971 91.1233 782.335 91.338C782.699 91.5433 783.114 91.646 783.581 91.646C784.075 91.646 784.491 91.5293 784.827 91.296C785.172 91.0627 785.438 90.7547 785.625 90.372L786.591 90.862C786.413 91.226 786.175 91.5433 785.877 91.814C785.587 92.0847 785.242 92.2947 784.841 92.444C784.449 92.5933 784.01 92.668 783.525 92.668ZM781.257 88.496L780.963 88.272H785.793L785.499 88.51C785.499 88.062 785.41 87.6747 785.233 87.348C785.055 87.0213 784.817 86.7693 784.519 86.592C784.22 86.4147 783.875 86.326 783.483 86.326C783.1 86.326 782.736 86.4147 782.391 86.592C782.055 86.7693 781.779 87.0213 781.565 87.348C781.359 87.6653 781.257 88.048 781.257 88.496ZM796.32 92.668C795.321 92.668 794.439 92.4533 793.674 92.024C792.909 91.5853 792.307 90.988 791.868 90.232C791.439 89.4667 791.224 88.594 791.224 87.614C791.224 86.6153 791.439 85.738 791.868 84.982C792.307 84.2167 792.909 83.6193 793.674 83.19C794.439 82.7513 795.321 82.532 796.32 82.532C796.843 82.532 797.351 82.6207 797.846 82.798C798.341 82.966 798.793 83.1993 799.204 83.498C799.615 83.7967 799.946 84.1373 800.198 84.52L799.26 85.164C799.073 84.8653 798.821 84.5993 798.504 84.366C798.187 84.1233 797.837 83.9367 797.454 83.806C797.081 83.6753 796.703 83.61 796.32 83.61C795.564 83.61 794.892 83.7827 794.304 84.128C793.716 84.464 793.254 84.9307 792.918 85.528C792.582 86.1253 792.414 86.8207 792.414 87.614C792.414 88.3793 792.577 89.0653 792.904 89.672C793.24 90.2693 793.702 90.7407 794.29 91.086C794.887 91.4313 795.564 91.604 796.32 91.604C796.955 91.604 797.515 91.4733 798 91.212C798.495 90.9413 798.882 90.5727 799.162 90.106C799.442 89.63 799.582 89.084 799.582 88.468L800.716 88.384C800.716 89.2427 800.529 89.994 800.156 90.638C799.783 91.2727 799.265 91.772 798.602 92.136C797.939 92.4907 797.179 92.668 796.32 92.668ZM797.174 88.524V87.502H800.716V88.426L800.156 88.524H797.174ZM802.197 92.5V85.5H803.247L803.303 86.48C803.517 86.1067 803.793 85.822 804.129 85.626C804.465 85.43 804.857 85.332 805.305 85.332C805.865 85.332 806.341 85.4627 806.733 85.724C807.134 85.9853 807.423 86.382 807.601 86.914C807.797 86.4007 808.081 86.0087 808.455 85.738C808.837 85.4673 809.29 85.332 809.813 85.332C810.597 85.332 811.213 85.5933 811.661 86.116C812.118 86.6387 812.342 87.432 812.333 88.496V92.5H811.213V88.916C811.213 88.2253 811.138 87.698 810.989 87.334C810.849 86.97 810.657 86.7227 810.415 86.592C810.172 86.452 809.892 86.382 809.575 86.382C809.024 86.382 808.595 86.6013 808.287 87.04C807.979 87.4693 807.825 88.0807 807.825 88.874V92.5H806.705V88.916C806.705 88.2253 806.63 87.698 806.481 87.334C806.341 86.97 806.145 86.7227 805.893 86.592C805.65 86.452 805.37 86.382 805.053 86.382C804.511 86.382 804.087 86.6013 803.779 87.04C803.471 87.4693 803.317 88.0807 803.317 88.874V92.5H802.197ZM814.105 92.5V82.7H815.225V91.198L815.169 92.5H814.105ZM817.591 92.668C817.003 92.668 816.485 92.514 816.037 92.206C815.598 91.898 815.258 91.4687 815.015 90.918C814.772 90.358 814.651 89.7187 814.651 89C814.651 88.272 814.772 87.6327 815.015 87.082C815.258 86.5313 815.598 86.102 816.037 85.794C816.485 85.486 817.003 85.332 817.591 85.332C818.216 85.332 818.767 85.486 819.243 85.794C819.719 86.102 820.088 86.5313 820.349 87.082C820.62 87.6327 820.755 88.272 820.755 89C820.755 89.7187 820.62 90.358 820.349 90.918C820.088 91.4687 819.719 91.898 819.243 92.206C818.767 92.514 818.216 92.668 817.591 92.668ZM817.339 91.646C817.778 91.646 818.165 91.534 818.501 91.31C818.846 91.086 819.117 90.7733 819.313 90.372C819.518 89.9707 819.621 89.5133 819.621 89C819.621 88.4867 819.523 88.0293 819.327 87.628C819.14 87.2267 818.874 86.914 818.529 86.69C818.184 86.466 817.792 86.354 817.353 86.354C816.942 86.354 816.574 86.466 816.247 86.69C815.93 86.914 815.678 87.2267 815.491 87.628C815.314 88.0293 815.225 88.4867 815.225 89C815.225 89.5133 815.314 89.9707 815.491 90.372C815.678 90.7733 815.93 91.086 816.247 91.31C816.564 91.534 816.928 91.646 817.339 91.646ZM829.364 92.5V82.7H830.54V92.5H829.364ZM822.63 92.5V82.7H823.82V92.5H822.63ZM823.68 87.992V86.914H829.616V87.992H823.68Z" fill="#99ACB3"/>
</g>
<defs>
<clipPath id="clip0_401_1332">
<rect width="1440" height="128" fill="white"/>
</clipPath>
</defs>
</svg>
